<svg xmlns="http://www.w3.org/2000/svg" viewBox="0 0 844 179">
	<title>GTAtlas Logo</title>
	<desc>Manual quantization of Outfit by Google Fonts</desc>
	<path fill="#25dbad" d="M142 45c-41-54-133-23-122 57c13 80 125 77 129 0h-64v-16h83l-1 20c-9 94-145 98-165 0c-15-100 100 -137 153-74zM182 4v17h60v155h18v-155h60v-17z"/>
	<path fill="#eee" d="M394 4h-14l-70 172h20l18-45h78l18 45h20zm-7 29l33 82h-66zM511 12h8v49h30v7h-30v108h-8v-108h-30v-7h30zM577 2h8v174h-8zM724 62h8v114h-8v-28c-18 48-107 40-107-29c0-69 89-77 107-29zm0 57c0-70 -99-70-99 0c0 70 99 70 99 0zM766 152c16 22 50 24 64 11 8-9 8-23 0-31-8-10-44-15-54-25-11-10-10-29 0-39 18-16 53-12 67 7 l-5 5c-12-16-43-21-57-7-8 8-7 21 0 28 8 10 43 13 54 25 11 9 11 32 0 42-20 19-60 9-74-10z"/>
</svg>